<svg width="36" height="36" viewBox="0 0 36 36" fill="none" xmlns="http://www.w3.org/2000/svg">
<path d="M22.852 0C23.028 0 23.18 0.0640001 23.308 0.192C23.436 0.320001 23.5 0.472001 23.5 0.648V4.352C23.5 4.528 23.436 4.68 23.308 4.808C23.18 4.936 23.028 5 22.852 5L11.3199 4.99994V16.352C11.3199 16.528 11.2559 16.68 11.1279 16.808C10.9999 16.936 10.8479 17 10.6719 17H5.72795C5.55195 17 5.39995 16.936 5.27195 16.808C5.14395 16.68 5.07995 16.528 5.07995 16.352V4.99994H0.648C0.472 4.99994 0.32 4.93594 0.192 4.80794C0.064 4.67994 0 4.52794 0 4.35194V0.647939C0 0.47194 0.064 0.31994 0.192 0.191939C0.32 0.0639391 0.472 -6.10352e-05 0.648 -6.10352e-05L22.852 0Z" fill="white"/>
<path d="M35.4435 0C35.6048 0 35.7339 0.0949608 35.8306 0.284882C35.9435 0.447674 36 0.664729 36 0.936046V4.06395C36 4.33527 35.9435 4.56589 35.8306 4.75581C35.7339 4.9186 35.6048 5 35.4435 5H22.5726C22.4113 5 22.2742 4.9186 22.1613 4.75581C22.0645 4.56589 22.0161 4.33527 22.0161 4.06395V0.936046C22.0161 0.664729 22.0645 0.447674 22.1613 0.284882C22.2742 0.0949608 22.4113 0 22.5726 0H35.4435ZM36 22.8314C36 26.9826 35.1774 30.0484 33.5323 32.0291C31.9032 34.0097 29.7258 35 27 35C24.2742 35 22.0887 34.0097 20.4435 32.0291C18.8145 30.0484 18 26.9554 18 22.75V17.9477C18 15.1802 18.3871 12.8876 19.1613 11.0698C19.9516 9.22481 21.0242 7.86822 22.379 7C23.7339 6.13178 25.2742 5.69767 27 5.69767C28.7258 5.69767 30.2581 6.13178 31.5968 7C32.9516 7.86822 34.0242 9.21124 34.8145 11.0291C35.6048 12.8469 36 15.126 36 17.8663V22.8314ZM24.5323 23.6046C24.5323 24.7171 24.75 25.5717 25.1855 26.1686C25.6371 26.7655 26.2419 27.064 27 27.064C27.7581 27.064 28.3548 26.7655 28.7903 26.1686C29.2419 25.5446 29.4677 24.6764 29.4677 23.564V17.1337C29.4677 16.0213 29.2419 15.1667 28.7903 14.5698C28.3548 13.9457 27.7581 13.6337 27 13.6337C26.2419 13.6337 25.6371 13.9322 25.1855 14.5291C24.75 15.126 24.5323 15.9806 24.5323 17.093V23.6046Z" fill="white"/>
<path d="M8.12798 18.2C10.832 18.2 12.992 18.784 14.608 19.952C16.24 21.12 17.056 22.928 17.056 25.376V27.824C17.056 30.32 16.248 32.144 14.632 33.296C13.032 34.432 10.864 35 8.12798 35L0.648 35.148C0.472 35.148 0.32 35.084 0.192 34.956C0.064 34.828 0 34.676 0 34.5V18.996C0 18.82 0.064 18.668 0.192 18.54C0.32 18.412 0.472 18.348 0.648 18.348L8.12798 18.2ZM8.8645 30.32C9.6165 30.32 10.2085 30.144 10.6405 29.792C11.0885 29.424 11.3125 28.912 11.3125 28.256V24.944C11.3125 24.288 11.0885 23.784 10.6405 23.432C10.2085 23.064 9.6165 22.88 8.8645 22.88H5V30.32H8.8645Z" fill="white"/>
</svg>
